<?xml version="1.0" encoding="UTF-8"?>
<svg version="1.1" xmlns="http://www.w3.org/2000/svg" width="512" height="512">
<path d="M0 0 C1.06623596 -0.0033284 2.13247192 -0.0066568 3.23101807 -0.01008606 C5.47659884 -0.01512426 7.72218702 -0.01749535 9.96777344 -0.01733398 C13.36666475 -0.01951587 16.76522864 -0.03769259 20.1640625 -0.05664062 C40.96211307 -0.11213597 58.22685547 1.59287616 75.640625 14.16796875 C76.70216797 14.93367188 76.70216797 14.93367188 77.78515625 15.71484375 C89.88299073 25.35493277 98.05350091 41.26779122 99.92918396 56.51338196 C100.61784589 63.63702694 100.77176935 70.68232455 100.73828125 77.8359375 C100.73615883 79.57717644 100.73615883 79.57717644 100.73399353 81.35359192 C100.72844558 85.02091165 100.71590305 88.68816782 100.703125 92.35546875 C100.69810326 94.85872307 100.69354154 97.36197836 100.68945312 99.86523438 C100.67849326 105.96616712 100.66180787 112.06706339 100.640625 118.16796875 C93.37145461 122.02119329 86.34392393 125.23438557 78.390625 127.35546875 C77.47861328 127.60393555 76.56660156 127.85240234 75.62695312 128.10839844 C72.97008909 128.81782775 70.30819114 129.50003438 67.640625 130.16796875 C66.96580078 130.3395752 66.29097656 130.51118164 65.59570312 130.68798828 C22.0700971 141.362125 -30.43735769 134.86409493 -72.359375 120.16796875 C-74.05663738 118.47070637 -73.50431716 116.30764415 -73.52050781 113.98413086 C-73.53011536 112.87464584 -73.5397229 111.76516083 -73.54962158 110.62205505 C-73.55387146 109.40873001 -73.55812134 108.19540497 -73.5625 106.9453125 C-73.56820007 105.69730362 -73.57390015 104.44929474 -73.57977295 103.16346741 C-73.58924999 100.50599529 -73.5961305 97.84863672 -73.59960938 95.19116211 C-73.60395444 92.49408134 -73.61768176 89.79732762 -73.640625 87.1003418 C-73.93412527 49.92899161 -73.93412527 49.92899161 -66.609375 36.73046875 C-66.25866943 36.06853516 -65.90796387 35.40660156 -65.54663086 34.72460938 C-57.19028665 19.35089734 -44.62863666 9.02666305 -28.265625 3.03515625 C-18.9734613 0.34669316 -9.60931813 0.01062488 0 0 Z " fill="#000000" transform="translate(245.359375,317.83203125)"/>
<path d="M0 0 C2.58592972 0.01507216 5.17186792 0.02875609 7.7578125 0.04101562 C14.04706232 0.0738244 20.3359909 0.12382346 26.625 0.1875 C26.91068848 1.81014771 26.91068848 1.81014771 27.20214844 3.46557617 C27.46261064 4.90809095 27.72336858 6.35055235 27.984375 7.79296875 C28.1707251 8.85831848 28.1707251 8.85831848 28.36083984 9.94519043 C30.43558555 21.30735914 35.51964226 33.15751705 43.83984375 41.375 C45.625 43.1875 45.625 43.1875 45.625 45.1875 C44.90957031 45.455625 44.19414062 45.72375 43.45703125 46 C22.93287903 54.07159415 7.4297115 66.90361679 -2.09375 87.03515625 C-6.90759515 98.87897649 -8.45818128 110.46627123 -8.9375 123.125 C-9.00227539 124.72311523 -9.00227539 124.72311523 -9.06835938 126.35351562 C-9.17374489 128.96473443 -9.27587088 131.57603746 -9.375 134.1875 C-33.65265378 133.80102505 -64.6142314 130.39651338 -86.375 119.1875 C-86.46845435 111.1020561 -86.53914138 103.01684489 -86.58224869 94.93099117 C-86.60295768 91.17474472 -86.63096136 87.41887279 -86.67675781 83.6628418 C-86.72082253 80.02529384 -86.74426184 76.38810173 -86.75450897 72.75030708 C-86.76179348 71.37547784 -86.77601122 70.00066388 -86.79792023 68.62598991 C-87.10101027 48.78541534 -81.00008988 32.76678998 -67.375 18.1875 C-48.42382402 -0.34036792 -24.81962628 -0.25219329 0 0 Z " fill="#000000" transform="translate(170.375,265.8125)"/>
<path d="M0 0 C6.86434664 -0.076815 13.72858021 -0.1289168 20.59326172 -0.16479492 C22.92273094 -0.17977077 25.2521725 -0.2001586 27.58154297 -0.22631836 C58.69159296 -0.56664709 58.69159296 -0.56664709 72.25 6.625 C73.25256836 7.14332397 73.25256836 7.14332397 74.27539062 7.67211914 C80.34302634 10.94263342 85.23923386 15.0166081 90 20 C91.07507813 21.06347656 91.07507813 21.06347656 92.171875 22.1484375 C105.017977 35.52576928 108.68048369 53.0735672 108.390625 71.02734375 C108.38313473 72.39595193 108.37745505 73.76457108 108.37347412 75.13319397 C108.358436 78.67938561 108.31935347 82.2248878 108.2746582 85.77081299 C108.23322423 89.41156699 108.21536207 93.05243595 108.1953125 96.69335938 C108.15282918 103.79584945 108.08485544 110.89787896 108 118 C106.10201252 118.9666663 104.20194675 119.92925265 102.30102539 120.89013672 C101.24315323 121.42661835 100.18528107 121.96309998 99.09535217 122.51583862 C94.96952442 124.49409307 90.83956607 125.90851651 86.4375 127.125 C85.56617432 127.36943848 84.69484863 127.61387695 83.79711914 127.86572266 C76.25760116 129.87020653 68.64691584 131.20888774 60.9375 132.375 C59.83269287 132.54273926 58.72788574 132.71047852 57.58959961 132.88330078 C50.35352192 133.89116556 43.30149152 134.19220936 36 134 C35.96036133 133.19481934 35.92072266 132.38963867 35.87988281 131.56005859 C34.68123872 108.4249032 32.54736105 87.53077358 17 69 C16.56429687 68.42121094 16.12859375 67.84242188 15.6796875 67.24609375 C7.39958854 56.67122451 -6.36978285 49.21007238 -19 45 C-17.70545523 42.21642486 -16.26267553 39.98658242 -14.3125 37.625 C-5.65461946 26.18726076 -2.31466996 13.92181053 0 0 Z " fill="#000000" transform="translate(321,266)"/>
<path d="M0 0 C6.54289063 -0.07703478 13.08566136 -0.12900559 19.62890625 -0.16479492 C21.8477007 -0.179739 24.06646636 -0.20010168 26.28515625 -0.22631836 C59.15421273 -0.60454983 59.15421273 -0.60454983 72.3125 6.625 C72.97000244 6.97272461 73.62750488 7.32044922 74.30493164 7.67871094 C90.52109332 16.55592605 101.09073359 30.173814 106.54858398 47.73535156 C108.47595746 54.8975181 108.37823313 61.92798306 108.29296875 69.29296875 C108.28735918 70.73455865 108.28309553 72.17615436 108.28010559 73.61775208 C108.26876366 77.37428147 108.23939136 81.13045143 108.20599365 84.88684082 C108.17506009 88.73505799 108.161551 92.58333441 108.14648438 96.43164062 C108.11450883 103.95458925 108.06344534 111.47724387 108 119 C106.10317886 119.79992008 104.20535909 120.59747237 102.30712891 121.39404297 C101.25038971 121.83843719 100.19365051 122.28283142 99.10488892 122.74069214 C94.92339763 124.43665776 90.69857983 125.84207692 86.375 127.125 C85.5303418 127.37725342 84.68568359 127.62950684 83.81542969 127.8894043 C75.32317284 130.33690247 66.74940938 131.83034437 58 133 C57.33097656 133.09643799 56.66195312 133.19287598 55.97265625 133.29223633 C51.45208319 133.91468951 47.05970939 134.10634336 42.5 134.0625 C41.2728125 134.05347656 40.045625 134.04445313 38.78125 134.03515625 C37.8634375 134.02355469 36.945625 134.01195312 36 134 C35.98541748 133.34628418 35.97083496 132.69256836 35.95581055 132.01904297 C35.38283031 108.99050174 33.13154714 88.39521417 18 70 C17.44570313 69.28328125 16.89140625 68.5665625 16.3203125 67.828125 C7.59937801 57.0625695 -5.92691594 49.35769469 -19 45 C-17.53369445 41.69333136 -15.63272405 39.33096181 -13.25 36.625 C-6.33742227 28.03132351 -3.05950889 18.75960063 -1.33203125 8.03515625 C-1.20107056 7.25789185 -1.07010986 6.48062744 -0.93518066 5.67980957 C-0.61726109 3.78756975 -0.30774057 1.89392189 0 0 Z " fill="#000000" transform="translate(404,215)"/>
<path d="M0 0 C1.14004486 0.0028299 2.28008972 0.00565979 3.4546814 0.00857544 C7.06104464 0.01968318 10.66715055 0.04477018 14.2734375 0.0703125 C16.73306931 0.08035446 19.19270504 0.08947817 21.65234375 0.09765625 C27.65112802 0.11959163 33.64976436 0.15297435 39.6484375 0.1953125 C39.82149414 1.32388672 39.99455078 2.45246094 40.17285156 3.61523438 C41.95448314 15.0684182 41.95448314 15.0684182 46.3984375 25.6953125 C46.74261719 26.34910889 47.08679688 27.00290527 47.44140625 27.67651367 C49.96407895 32.33202298 52.8940294 36.51452294 56.3984375 40.49609375 C57.6484375 42.1953125 57.6484375 42.1953125 57.6484375 45.1953125 C56.30652344 45.72318359 56.30652344 45.72318359 54.9375 46.26171875 C33.04122848 55.20230723 17.98670419 70.42253685 8.6484375 92.1953125 C5.19802507 102.19266135 4.46602521 112.13366839 4.0859375 122.6328125 C4.02116211 124.3024707 4.02116211 124.3024707 3.95507812 126.00585938 C3.84963862 128.73557094 3.74751721 131.46536393 3.6484375 134.1953125 C-54.23119213 132.31568287 -54.23119213 132.31568287 -68.3515625 118.1953125 C-68.46135688 116.2596915 -68.50067828 114.32004284 -68.51269531 112.38134766 C-68.52230286 111.13559967 -68.5319104 109.88985168 -68.54180908 108.60635376 C-68.54666092 107.2323627 -68.5509388 105.85836951 -68.5546875 104.484375 C-68.56044138 103.07726032 -68.56619908 101.67014566 -68.57196045 100.26303101 C-68.58248905 97.30214065 -68.58831737 94.34127755 -68.59179688 91.38037109 C-68.59724072 87.61363181 -68.62117109 83.84726156 -68.64976883 80.08063698 C-68.6685511 77.16697202 -68.67360933 74.25339243 -68.67513275 71.33967209 C-68.67813234 69.95320017 -68.68606813 68.56672877 -68.69931793 67.18031693 C-68.86034713 49.01140844 -63.28782926 32.39055109 -50.55395508 19.15405273 C-36.45106167 5.22028773 -19.44517495 -0.18485892 0 0 Z " fill="#000000" transform="translate(68.3515625,216.8046875)"/>
<path d="M0 0 C11.33438558 10.17111969 16.69142093 24.02522747 18.19140625 38.8671875 C18.81461143 53.49896122 13.07862626 68.07821612 3.65625 79.1015625 C-6.50555802 89.55468711 -19.04069299 96.06056835 -33.73046875 96.8671875 C-50.40737609 97.06319425 -64.45836648 92.85673897 -76.78125 81.0078125 C-88.75083027 68.53949972 -93.56806486 54.5729441 -93.27734375 37.4375 C-92.27085086 22.00460907 -85.37494615 9.04198943 -74.03125 -1.3359375 C-50.75328951 -19.20119105 -22.76677319 -17.5444979 0 0 Z " fill="#000000" transform="translate(294.03125,73.3359375)"/>
<path d="M0 0 C12.1030446 8.25312375 19.16022405 19.68891916 22.6640625 33.8828125 C24.85383625 48.12740131 21.88252682 61.12161278 13.83203125 72.99609375 C4.88960068 85.05660867 -7.20306515 91.86738128 -21.94921875 94.3984375 C-36.4659165 95.78993443 -50.93300242 91.4034967 -62.26171875 82.1484375 C-71.72142576 73.20006601 -78.11111669 60.69552311 -79.28515625 47.671875 C-79.44532944 31.68659097 -75.12524513 18.32358129 -64.1171875 6.46875 C-46.62461643 -10.23586741 -20.49249065 -12.36292854 0 0 Z " fill="#000000" transform="translate(286.94921875,221.6015625)"/>
<path d="M0 0 C10.88484155 8.18042876 18.28862844 19.35158807 20.53125 32.90234375 C20.70398438 33.89363281 20.87671875 34.88492188 21.0546875 35.90625 C21.49781068 40.59497225 21.52904927 43.61576026 18.57421875 47.42578125 C16.83641088 49.07549748 15.06756421 50.69296502 13.2734375 52.28125 C5.26237391 59.93854867 -0.5020956 71.5205936 -1.77734375 82.578125 C-2.46875 84.90234375 -2.46875 84.90234375 -4.5078125 86.4140625 C-18.6484751 92.84357828 -32.53707552 94.85394213 -47.5 89.8984375 C-60.61751354 84.87999482 -71.51920499 75.52909723 -77.4375 62.6328125 C-82.82591082 48.3657702 -82.91585154 34.93004725 -77.21484375 20.79296875 C-72.21934619 10.0669413 -65.55288495 2.95282472 -55.46875 -3.09765625 C-54.685 -3.65453125 -53.90125 -4.21140625 -53.09375 -4.78515625 C-35.95546101 -13.35430074 -15.44848341 -10.49875381 0 0 Z " fill="#000000" transform="translate(200.46875,171.09765625)"/>
<path d="M0 0 C0.7425 0.825 1.485 1.65 2.25 2.5 C3.075 3.386875 3.9 4.27375 4.75 5.1875 C11.27718131 13.21305941 16.17161788 24.99734476 15.875 35.453125 C14.61925029 39.56570531 10.87700487 41.55820007 7.25 43.5 C5.765 43.995 5.765 43.995 4.25 44.5 C3.53954312 45.81052404 2.87881727 47.14840425 2.25 48.5 C1.17013878 49.873627 0.06367077 51.2265768 -1.0625 52.5625 C-6.32961514 59.28298923 -9.3276095 66.02523026 -10.90356445 74.41918945 C-12.53923958 82.49210068 -12.53923958 82.49210068 -15.96484375 85.34375 C-27.27219443 89.78422432 -43.89869705 89.34562271 -55.08984375 84.8125 C-67.97087069 78.45710345 -78.63701187 69.25934203 -83.75 55.5 C-88.6307324 41.09588729 -87.55075728 27.93709822 -81.6875 13.96875 C-74.87160137 0.52628326 -63.67127376 -7.54754199 -49.8046875 -12.52734375 C-32.2053615 -18.13122121 -13.37718654 -12.16107867 0 0 Z " fill="#000000" transform="translate(121.75,126.5)"/>
<path d="M0 0 C11.01568907 8.0602603 17.92576388 19.68166618 20.61328125 33.05078125 C22.4069488 46.72976109 19.95546856 60.07879182 11.9765625 71.50390625 C2.19581208 83.85548632 -8.47224419 90.12809532 -24 93 C-32.34780962 93.90493917 -40.04766884 92.61085571 -48 90 C-48.73476563 89.77828125 -49.46953125 89.5565625 -50.2265625 89.328125 C-53.07854613 87.19227823 -53.14357814 84.53133611 -53.875 81.125 C-57.77046827 64.72820833 -66.91910559 51.38726294 -81 42 C-82.45170447 31.21590964 -77.8803305 20.11684088 -71.83984375 11.39453125 C-54.52738893 -11.13738977 -23.5057983 -16.02871579 0 0 Z " fill="#000000" transform="translate(456,120)"/>
<path d="M0 0 C11.05536091 7.58817783 18.29291395 18.41188636 21.1796875 31.49609375 C23.61682685 46.07897675 20.90881479 59.83310648 12.6171875 72.05859375 C3.64244035 83.78714501 -8.18400117 91.07531864 -22.8359375 93.27734375 C-31.98822707 93.9481922 -43.00515829 93.97510509 -50.8203125 88.49609375 C-52.03270676 85.85086991 -52.3895262 84.28117728 -52.8203125 81.49609375 C-56.84123202 67.28072171 -63.61657361 52.63884848 -76.9453125 44.93359375 C-79.8203125 42.49609375 -79.8203125 42.49609375 -80.38671875 40.40234375 C-80.9569431 28.7771247 -75.18888052 16.83528157 -68.1328125 7.87109375 C-50.36710448 -11.65762346 -21.5845395 -13.82651811 0 0 Z " fill="#000000" transform="translate(371.8203125,170.50390625)"/>
<path d="M0 0 C12.04153595 -0.48166144 24.26497338 2.83480514 33.609375 10.65234375 C35.00390625 12.02734375 35.00390625 12.02734375 36.81640625 14.15234375 C36.40068359 15.36470703 36.40068359 15.36470703 35.9765625 16.6015625 C35.43322266 18.20451172 35.43322266 18.20451172 34.87890625 19.83984375 C34.51925781 20.89558594 34.15960938 21.95132813 33.7890625 23.0390625 C28.87198916 38.77764666 31.11563677 55.89766303 38.484375 70.4453125 C39.51107379 72.29141936 40.57118393 74.11979168 41.6796875 75.91796875 C42.81640625 78.15234375 42.81640625 78.15234375 42.81640625 82.15234375 C41.03362881 84.16858014 38.98514468 85.52578993 36.81640625 87.15234375 C35.99398437 86.81460938 35.1715625 86.476875 34.32421875 86.12890625 C17.31672292 79.33376358 5.16861562 79.38335905 -12.18359375 84.15234375 C-13.51614806 84.48877783 -14.84929654 84.82288991 -16.18359375 85.15234375 C-16.47492188 83.98058594 -16.76625 82.80882812 -17.06640625 81.6015625 C-21.80622994 63.14968457 -29.87142779 48.80900232 -46.18359375 38.15234375 C-44.427011 30.77161447 -41.73809416 25.20165456 -37.18359375 19.15234375 C-36.44109375 18.12109375 -35.69859375 17.08984375 -34.93359375 16.02734375 C-25.63580555 6.30692882 -13.34420832 0.93099128 0 0 Z " fill="#000000" transform="translate(161.18359375,72.84765625)"/>
<path d="M0 0 C8.11196652 5.92797553 13.98947873 13.77773852 18 23 C18 23.99 18 24.98 18 26 C15.9453125 27.47265625 15.9453125 27.47265625 13.125 29.0625 C-1.71824457 38.18212841 -9.9508178 51.23725648 -14 68 C-14.35499472 69.99626899 -14.69483855 71.99550814 -15 74 C-19.32964047 73.51892884 -23.50264493 72.90655674 -27.75 71.9375 C-38.22048202 69.85295115 -47.21227018 71.22100923 -57.3359375 74.02734375 C-63.83927649 75.75370986 -63.83927649 75.75370986 -67 76 C-69.42986526 73.8803303 -70.63278476 72.76564544 -72 70 C-72.18883851 65.84555283 -70.48981069 62.91135722 -68.625 59.3125 C-61.54446705 45.60164139 -60.87113478 30.94902272 -64 16 C-64.37511719 14.97777344 -64.75023437 13.95554687 -65.13671875 12.90234375 C-66.0979325 9.67075183 -66.17682 8.14341697 -65 5 C-48.0978307 -12.78981058 -19.58537583 -13.13653257 0 0 Z " fill="#000000" transform="translate(381,82)"/>
<path d="M0 0 C1.92713585 -0.00472824 1.92713585 -0.00472824 3.89320374 -0.009552 C5.28223709 -0.00776213 6.67127012 -0.00571116 8.06030273 -0.00341797 C9.49706539 -0.00409233 10.93382794 -0.00506347 12.37059021 -0.00631714 C15.37386161 -0.00778738 18.37710317 -0.00566092 21.38037109 -0.00097656 C25.22252809 0.00472548 29.0646153 0.00143445 32.90676975 -0.00454903 C35.8707888 -0.00816843 38.8347914 -0.0070098 41.79881096 -0.00442123 C43.21534165 -0.00375605 44.63187386 -0.00456606 46.04840279 -0.00690079 C48.02966405 -0.0094505 50.01093059 -0.00487298 51.9921875 0 C53.11770523 0.00079559 54.24322296 0.00159119 55.40284729 0.00241089 C58.19493466 0.11947995 60.71589718 0.4925614 63.43139648 1.12939453 C62.7245751 4.70608107 61.24747322 7.63048703 59.61889648 10.87939453 C56.07517065 18.38526201 54.19533962 26.04638451 52.43139648 34.12939453 C51.8397168 33.99662109 51.24803711 33.86384766 50.63842773 33.72705078 C49.84823242 33.55044922 49.05803711 33.37384766 48.24389648 33.19189453 C47.4665918 33.01787109 46.68928711 32.84384766 45.88842773 32.66455078 C45.07760742 32.48794922 44.26678711 32.31134766 43.43139648 32.12939453 C42.70307617 31.94892578 41.97475586 31.76845703 41.22436523 31.58251953 C28.96896226 29.59423038 16.94570763 30.60945004 5.43139648 35.12939453 C3.43420731 35.80443516 1.43491424 36.47337544 -0.56860352 37.12939453 C-1.86647554 34.53365049 -1.96972368 32.20213077 -2.31860352 29.31689453 C-3.74018427 19.74774648 -6.853068 10.96179505 -12.56860352 3.12939453 C-12.56860352 2.46939453 -12.56860352 1.80939453 -12.56860352 1.12939453 C-8.32460461 0.32317404 -4.31738482 0.00304967 0 0 Z " fill="#000000" transform="translate(230.568603515625,172.87060546875)"/>
</svg>
